<svg xmlns="http://www.w3.org/2000/svg" width="133.518" height="2384.319" viewBox="0 0 133.518 2384.319">
  <defs>
    <style>
      .cls-1 {
        fill: none;
        stroke: #5222d0;
        stroke-width: 3px;
      }
    </style>
  </defs>
  <g id="Group_2013" data-name="Group 2013" transform="translate(-64.315 -73.652)">
    <path id="Path_1" data-name="Path 1" class="cls-1" d="M116.559,80s-65.185,273.333,0,375,66.775-23.333,66.775-23.333,0-75-34.977-61.667S84.761,470,84.761,470s-11.129,50,0,103.333,31.8,153.333,31.8,153.333l27.108,144" transform="translate(-6 -6)"/>
    <path id="Path_162" data-name="Path 162" class="cls-1" d="M146.59,80s65.185,273.333,0,375-66.775-23.333-66.775-23.333,0-75,34.977-61.667,63.595,100,63.595,100,11.129,50,0,103.333-31.8,153.333-31.8,153.333l-7.16,51.307" transform="translate(-14 761)"/>
    <path id="Path_744" data-name="Path 744" class="cls-1" d="M116.559,80s-65.185,273.333,0,375,66.775-23.333,66.775-23.333,0-75-34.977-61.667S84.761,470,84.761,470,64.2,538.333,75.333,591.667s12.051,391.667,20,430" transform="translate(13 1436)"/>
  </g>
</svg>
